<svg height="512pt" viewBox="0 0 512.00034 512" width="512pt" xmlns="http://www.w3.org/2000/svg"><path d="m433.898438 425.308594 13.164062 7.523437c30.644531 17.507813 53.761719 45.691407 64.9375 79.167969h-451.253906c11.175781-33.476562 34.292968-61.660156 64.9375-79.167969l13.164062-7.523437zm0 0" fill="#dbdbdb"/><path d="m286.375 425.308594h147.523438l26.035156-173.648438s-34.714844-105.132812-34.714844-113.808594v-120.496093c-.007812-4.792969-3.902344-8.667969-8.695312-8.660157-1.515626.003907-3.003907.40625-4.320313 1.164063l-98.171875 57.273437c-16.921875-9.609374-37.617188-9.726562-54.648438-.3125l-.632812.339844-98.207031-57.285156c-4.152344-2.394531-9.457031-.972656-11.855469 3.175781-.753906 1.308594-1.15625 2.792969-1.160156 4.304688v120.492187c0 8.679688-34.714844 113.8125-34.714844 113.8125l26.035156 173.648438z" fill="#dbdbdb"/><path d="m138.847656 425.308594 147.527344 60.65625 147.523438-60.65625zm0 0" fill="#3b869e"/><path d="m225.628906 86.867188-43.390625-26.996094v53.027344zm0 0" fill="#a8a8a8"/><path d="m347.117188 86.867188 43.390624-26.996094v53.027344zm0 0" fill="#a8a8a8"/><path d="m216.949219 130.257812c4.792969 0 8.675781 3.882813 8.675781 8.675782v17.355468c0 4.792969-3.882812 8.679688-8.675781 8.679688s-8.679688-3.886719-8.679688-8.679688v-17.355468c0-4.792969 3.886719-8.675782 8.679688-8.675782zm0 0" fill="#eaeae8"/><path d="m242.984375 225.714844c0 14.378906-11.65625 26.03125-26.035156 26.03125-14.378907 0-26.035157-11.652344-26.035157-26.03125s11.65625-26.035156 26.035157-26.035156c14.378906 0 26.035156 11.65625 26.035156 26.035156zm0 0" fill="#744630"/><path d="m355.796875 130.257812c4.792969 0 8.675781 3.882813 8.675781 8.675782v17.355468c0 4.792969-3.882812 8.679688-8.675781 8.679688s-8.679687-3.886719-8.679687-8.679688v-17.355468c0-4.792969 3.886718-8.675782 8.679687-8.675782zm0 0" fill="#eaeae8"/><path d="m381.832031 225.714844c0 14.378906-11.65625 26.03125-26.035156 26.03125s-26.035156-11.652344-26.035156-26.03125 11.65625-26.035156 26.035156-26.035156 26.035156 11.65625 26.035156 26.035156zm0 0" fill="#744630"/><path d="m370.835938 349.894531c-3.257813-3.511719-8.75-3.714843-12.261719-.457031l-15.550781 14.394531c-9.1875 5.171875-20.214844 5.921875-30.019532 2.039063l-1.585937-.640625c-9.914063-3.925781-16.410157-13.523438-16.367188-24.1875v-11.191407c0-4.792968-3.886719-8.679687-8.675781-8.679687-4.792969 0-8.679688 3.886719-8.679688 8.679687v11.191407c.03125 10.660156-6.464843 20.253906-16.375 24.179687l-1.570312.625c-9.800781 3.890625-20.839844 3.144532-30.027344-2.03125l-15.550781-14.378906c-3.570313-3.199219-9.054687-2.894531-12.253906.675781-3.117188 3.480469-2.917969 8.804688.453125 12.042969l16.253906 15.058594c.4375.40625.917969.765625 1.429688 1.074218 13.976562 8.316407 31.023437 9.679688 46.140624 3.6875l1.570313-.632812c7.410156-2.96875 13.851563-7.933594 18.605469-14.34375 4.757812 6.40625 11.195312 11.367188 18.597656 14.335938l1.589844.652343c15.117187 5.980469 32.15625 4.613281 46.132812-3.699219.511719-.308593.988282-.667968 1.429688-1.074218l16.253906-15.058594c3.511719-3.257812 3.71875-8.746094.460938-12.261719zm0 0" fill="#744630"/><path d="m95.457031 69.421875h-26.035156v-26.03125h-34.710937v26.03125h-26.03125v34.714844h26.03125v26.03125h34.710937v-26.03125h26.035156zm0 0" fill="#85bc94"/><path d="m8.679688 34.710938c-4.792969 0-8.679688-3.882813-8.679688-8.675782v-17.355468c0-4.792969 3.886719-8.679688 8.679688-8.679688h17.355468c4.792969 0 8.675782 3.886719 8.675782 8.679688 0 4.792968-3.882813 8.675781-8.675782 8.675781h-8.679687v8.679687c0 4.792969-3.886719 8.675782-8.675781 8.675782zm0 0" fill="#99d8aa"/><path d="m286.375 338.527344c-1.972656 0-3.886719-.667969-5.425781-1.898438l-23.898438-19.09375c-11.226562-8.984375-13.046875-25.367187-4.0625-36.59375 1.933594-2.414062 4.28125-4.464844 6.933594-6.058594l4.132813-2.472656c13.734374-8.253906 30.902343-8.253906 44.636718 0l4.132813 2.472656c12.328125 7.398438 16.328125 23.386719 8.929687 35.71875-1.589844 2.652344-3.640625 5-6.058594 6.933594l-23.898437 19.089844c-1.539063 1.234375-3.453125 1.902344-5.421875 1.902344zm0 0" fill="#5b3726"/></svg>